<?xml version="1.0" standalone="no"?>
<!DOCTYPE svg PUBLIC "-//W3C//DTD SVG 20010904//EN"
 "http://www.w3.org/TR/2001/REC-SVG-20010904/DTD/svg10.dtd">
<svg version="1.0" xmlns="http://www.w3.org/2000/svg"
 width="260.000000pt" height="260.000000pt" viewBox="0 0 260.000000 260.000000"
 preserveAspectRatio="xMidYMid meet">
<metadata>
Created by potrace 1.14, written by Peter Selinger 2001-2017
</metadata>
<g transform="translate(0.000000,260.000000) scale(0.100000,-0.100000)"
fill="#000000" stroke="none">
<path d="M0 1300 l0 -1300 1300 0 1300 0 0 1300 0 1300 -1300 0 -1300 0 0
-1300z m1340 940 c33 -38 60 -60 73 -60 12 0 48 16 79 36 80 49 95 45 129 -40
15 -38 34 -73 41 -78 7 -5 31 -6 53 -3 155 23 155 22 155 -74 0 -96 11 -108
105 -113 106 -5 112 -13 86 -112 -25 -95 -20 -108 51 -131 69 -22 98 -41 98
-63 0 -10 -16 -42 -35 -72 -49 -77 -46 -99 16 -152 69 -58 76 -73 50 -109
l-21 -28 137 -3 c122 -3 138 -5 141 -20 3 -17 -59 -18 -1197 -18 -1194 0
-1201 0 -1201 20 0 19 7 20 111 20 l110 0 -15 22 c-28 40 -20 62 44 111 39 30
60 54 60 67 0 12 -15 45 -34 74 -18 29 -37 62 -40 74 -9 27 18 52 83 75 72 25
84 47 66 117 -22 83 -20 109 11 120 14 6 51 10 81 10 77 0 93 16 93 91 0 83
12 109 51 109 18 0 56 -8 85 -17 51 -16 55 -16 73 1 11 10 32 49 46 87 32 82
45 86 120 35 88 -59 91 -58 164 32 24 28 51 52 61 52 10 0 41 -27 70 -60z
m-992 -1142 c4 -32 -17 -39 -25 -8 -6 23 -31 26 -59 6 -14 -11 -19 -26 -19
-59 0 -60 18 -81 67 -73 44 7 52 -9 12 -24 -32 -12 -67 -4 -90 21 -24 27 -25
106 -1 142 16 25 23 28 65 25 43 -3 47 -5 50 -30z m197 12 c25 -28 32 -103 11
-134 -55 -85 -145 -36 -133 71 6 55 30 83 72 83 19 0 39 -8 50 -20z m225 -5
c0 -16 -6 -25 -15 -25 -8 0 -15 5 -15 10 0 6 -11 10 -25 10 -21 0 -25 -5 -25
-30 0 -20 5 -30 15 -30 8 0 15 5 15 10 0 6 5 10 10 10 6 0 10 -13 10 -30 0
-16 -4 -30 -10 -30 -5 0 -10 5 -10 10 0 6 -7 10 -15 10 -10 0 -15 -10 -15 -30
0 -16 5 -30 10 -30 6 0 10 -7 10 -15 0 -10 -10 -15 -29 -15 -30 0 -54 21 -33
28 15 5 17 142 2 142 -5 0 -10 7 -10 15 0 12 14 15 65 15 63 0 65 -1 65 -25z
m180 0 c0 -14 -4 -25 -10 -25 -5 0 -10 5 -10 10 0 6 -11 10 -25 10 -21 0 -25
-5 -25 -30 0 -29 13 -40 25 -20 13 21 25 9 25 -25 0 -35 -16 -47 -26 -20 -10
24 -21 17 -26 -15 -3 -20 0 -30 9 -30 7 0 13 -7 13 -15 0 -10 -11 -15 -35 -15
-24 0 -35 5 -35 15 0 8 5 15 10 15 6 0 10 30 10 70 0 40 -4 70 -10 70 -5 0
-10 7 -10 15 0 12 13 15 60 15 57 0 60 -1 60 -25z m153 19 c27 -5 37 -11 37
-25 0 -11 -7 -19 -15 -19 -8 0 -15 5 -15 10 0 6 -11 10 -25 10 -21 0 -25 -5
-25 -30 0 -20 5 -30 15 -30 8 0 15 5 15 10 0 6 5 10 10 10 6 0 10 -13 10 -30
0 -29 -13 -40 -25 -20 -12 20 -25 9 -25 -20 0 -27 3 -30 30 -30 17 0 30 5 30
10 0 6 5 10 10 10 6 0 10 -11 10 -25 0 -24 -2 -25 -65 -25 -51 0 -65 3 -65 15
0 8 5 15 10 15 15 0 13 137 -2 142 -18 6 1 28 25 28 12 0 39 -3 60 -6z m227
-29 c0 -14 -4 -25 -10 -25 -5 0 -10 7 -10 15 0 9 -9 15 -25 15 -21 0 -25 -5
-25 -30 0 -16 5 -30 10 -30 6 0 10 5 10 10 0 6 7 10 15 10 10 0 15 -10 15 -30
0 -20 -5 -30 -15 -30 -8 0 -15 5 -15 10 0 6 -4 10 -10 10 -5 0 -10 -13 -10
-30 0 -16 4 -30 9 -30 5 0 16 -3 25 -6 11 -4 16 -1 16 10 0 9 7 16 15 16 9 0
15 -9 15 -25 0 -24 -2 -25 -65 -25 -51 0 -65 3 -65 15 0 8 5 15 10 15 6 0 10
30 10 70 0 40 -4 70 -10 70 -5 0 -10 5 -10 10 0 6 27 10 60 10 57 0 60 -1 60
-25z m398 -2 c4 -27 -15 -30 -34 -5 -10 13 -17 15 -31 6 -28 -17 -22 -33 22
-57 35 -20 40 -27 40 -57 0 -28 -5 -37 -28 -48 -36 -18 -81 -4 -85 26 -2 15 2
22 12 22 9 0 16 -7 16 -16 0 -25 54 -14 58 12 2 16 -5 25 -28 34 -17 7 -38 24
-47 37 -14 21 -14 25 1 49 15 21 23 25 59 22 35 -2 43 -7 45 -25z m142 12 c0
-8 -4 -15 -10 -15 -5 0 -10 -11 -10 -25 0 -22 4 -25 40 -25 36 0 40 3 40 25 0
14 -4 25 -10 25 -5 0 -10 7 -10 15 0 10 11 15 35 15 24 0 35 -5 35 -15 0 -8
-4 -15 -10 -15 -6 0 -10 -30 -10 -70 0 -40 4 -70 10 -70 6 0 10 -4 10 -10 0
-5 -16 -10 -35 -10 -19 0 -35 5 -35 10 0 6 5 10 10 10 6 0 10 14 10 30 0 28
-2 30 -40 30 -38 0 -40 -2 -40 -30 0 -16 5 -30 10 -30 6 0 10 -4 10 -10 0 -5
-16 -10 -35 -10 -19 0 -35 5 -35 10 0 6 5 10 10 10 6 0 10 30 10 70 0 40 -4
70 -10 70 -5 0 -10 7 -10 15 0 10 11 15 35 15 24 0 35 -5 35 -15z m300 -5 c25
-25 34 -61 26 -106 -13 -68 -69 -94 -117 -55 -21 16 -24 28 -24 81 0 53 3 65
24 81 30 24 66 24 91 -1z m218 -8 c28 -36 1 -92 -45 -92 -18 0 -23 -5 -23 -25
0 -14 5 -25 10 -25 6 0 10 -7 10 -15 0 -10 -11 -15 -35 -15 -24 0 -35 5 -35
15 0 8 5 15 10 15 15 0 13 137 -2 142 -6 2 -8 9 -4 16 10 16 98 4 114 -16z
m112 -272 c0 -19 -7 -20 -215 -20 l-215 0 7 -45 c5 -42 4 -45 -21 -55 -15 -5
-56 -10 -90 -10 -39 0 -67 -5 -74 -12 -5 -7 -13 -47 -17 -90 -9 -108 -21 -117
-114 -88 -50 15 -75 19 -88 12 -10 -6 -32 -43 -48 -84 -37 -90 -54 -95 -129
-45 -83 56 -82 56 -150 -18 -34 -36 -69 -65 -78 -65 -9 0 -34 21 -54 48 -75
94 -81 95 -167 36 -81 -56 -100 -46 -137 69 -6 21 -22 45 -35 53 -21 14 -29
14 -83 -1 -32 -9 -70 -15 -83 -13 -22 3 -25 9 -34 85 -5 45 -16 88 -23 95 -7
7 -50 18 -95 23 l-82 10 1 48 0 47 -188 0 c-181 0 -188 1 -188 20 0 20 7 20
1200 20 1193 0 1200 0 1200 -20z"/>
<path d="M1125 2146 c-200 -39 -380 -146 -505 -298 -58 -71 -141 -233 -165
-323 -9 -33 -19 -111 -22 -172 -5 -106 -5 -113 13 -113 17 0 19 9 21 85 7 361
252 674 604 771 89 25 309 26 399 1 151 -40 320 -149 418 -269 65 -79 134
-211 162 -308 11 -41 23 -121 27 -177 5 -82 9 -103 21 -103 13 0 14 17 9 113
-10 214 -94 402 -248 556 -107 108 -248 189 -389 225 -90 23 -258 29 -345 12z"/>
<path d="M1110 2074 c-245 -53 -456 -228 -553 -460 -38 -88 -57 -173 -64 -279
l-6 -95 217 0 c120 0 216 3 214 8 -2 4 -16 31 -31 59 -49 93 -72 224 -45 251
9 9 121 12 443 12 406 0 433 -1 448 -18 10 -10 17 -30 17 -44 0 -22 6 -27 36
-32 49 -10 74 -38 74 -84 0 -42 -39 -106 -82 -136 -21 -15 -13 -16 126 -16
l149 0 -6 103 c-15 261 -150 491 -372 632 -159 102 -377 140 -565 99z m233
-110 c39 -39 38 -106 -2 -161 -39 -53 -61 -98 -61 -121 0 -11 11 -36 25 -56
32 -48 12 -46 -35 3 -63 66 -64 133 -3 233 36 57 38 78 17 132 -6 16 -4 17 12
8 11 -6 32 -23 47 -38z m-113 -73 c0 -15 -13 -48 -30 -72 -31 -46 -37 -78 -20
-110 16 -29 -6 -24 -26 7 -25 37 -20 101 10 158 17 32 24 57 20 75 l-5 26 25
-28 c15 -16 26 -40 26 -56z m170 -127 c0 -9 -9 -29 -21 -45 -12 -18 -19 -38
-16 -50 3 -13 1 -19 -6 -16 -22 7 -19 55 5 91 25 39 38 45 38 20z"/>
<path d="M1730 1406 c0 -7 -15 -44 -34 -82 -19 -38 -33 -70 -31 -72 13 -13
108 61 130 102 16 29 17 37 6 50 -17 20 -71 21 -71 2z"/>
<path d="M470 1090 c-34 -34 -17 -130 24 -130 22 0 46 35 46 69 0 64 -36 95
-70 61z"/>
<path d="M2090 1071 c-5 -11 -10 -34 -10 -51 0 -44 17 -70 45 -70 28 0 45 26
45 70 0 44 -17 70 -45 70 -14 0 -29 -8 -35 -19z"/>
<path d="M2320 1054 c0 -28 4 -35 16 -32 40 8 44 68 4 68 -16 0 -20 -6 -20
-36z"/>
<path d="M611 768 c70 -98 221 -211 347 -260 109 -43 192 -58 318 -58 236 0
442 92 609 272 54 58 64 74 49 76 -12 1 -50 -28 -109 -85 -103 -101 -215 -166
-351 -204 -102 -29 -283 -31 -389 -4 -149 37 -290 121 -398 234 -34 35 -67 61
-78 61 -20 0 -20 -1 2 -32z"/>
<path d="M715 749 c100 -102 228 -177 366 -215 89 -25 290 -25 379 -1 122 34
243 102 333 188 l82 78 -605 1 -604 0 49 -51z"/>
</g>
</svg>
